<?xml version="1.0" encoding="utf-8"?>
<!-- Generator: Adobe Illustrator 23.0.3, SVG Export Plug-In . SVG Version: 6.00 Build 0)  -->
<svg version="1.1" id="Livello_1" xmlns="http://www.w3.org/2000/svg" xmlns:xlink="http://www.w3.org/1999/xlink" x="0px" y="0px"
	 viewBox="0 0 119.1 82.2" style="enable-background:new 0 0 119.1 82.2;" xml:space="preserve">
<style type="text/css">
	.st0{clip-path:url(#SVGID_2_);fill:#131313;}
	.st1{clip-path:url(#SVGID_4_);fill:#BC2329;}
	.st2{clip-path:url(#SVGID_6_);fill:#131313;}
	.st3{clip-path:url(#SVGID_8_);fill:#131313;}
	.st4{clip-path:url(#SVGID_10_);fill:#131313;}
	.st5{clip-path:url(#SVGID_12_);fill:#131313;}
	.st6{clip-path:url(#SVGID_14_);fill:#131313;}
	.st7{clip-path:url(#SVGID_16_);fill:#131313;}
	.st8{clip-path:url(#SVGID_18_);fill:#131313;}
	.st9{clip-path:url(#SVGID_20_);fill:#131313;}
	.st10{clip-path:url(#SVGID_22_);fill:#131313;}
	.st11{clip-path:url(#SVGID_24_);fill:#131313;}
</style>
<g>
	<g>
		<g>
			<defs>
				<rect id="SVGID_1_" y="12.4" width="118.9" height="58.4"/>
			</defs>
			<clipPath id="SVGID_2_">
				<use xlink:href="#SVGID_1_"  style="overflow:visible;"/>
			</clipPath>
			<path class="st0" d="M17.9,70.9C9.8,70.9,0,66.6,0,50.4S9.8,30,17.9,30c5.5,0,9.6,1.8,13.2,5.3l-6.9,6.9C22,40,20.3,39,17.7,39
				c-2.4,0-4.3,0.8-5.7,2.6c-1.6,2-2.2,4.5-2.2,8.9s0.8,7.1,2.2,8.9c1.4,1.8,3.3,2.6,5.7,2.6c2.6,0,4.3-1,6.5-3.1l6.7,6.7
				C27.6,69.1,23.4,70.9,17.9,70.9"/>
		</g>
		<g>
			<defs>
				<rect id="SVGID_3_" y="12.4" width="118.9" height="58.4"/>
			</defs>
			<clipPath id="SVGID_4_">
				<use xlink:href="#SVGID_3_"  style="overflow:visible;"/>
			</clipPath>
			<path class="st1" d="M59.8,66c-2.6,2.6-6.5,4.9-12.4,4.9S37.6,68.5,35,66c-3.5-3.7-4.5-8.3-4.5-15.5s1-11.8,4.5-15.5
				c2.6-2.6,6.5-4.9,12.4-4.9s10,2.4,12.4,4.9c3.5,3.7,4.5,8.3,4.5,15.5C64.4,57.7,63.4,62.2,59.8,66 M52,40.6
				c-1.2-1.2-2.8-1.8-4.7-1.8s-3.5,0.6-4.5,1.8c-2.2,2.2-2.4,5.5-2.4,9.6c0,4.1,0.2,7.7,2.4,9.8c1.2,1.2,2.6,1.8,4.5,1.8
				s3.5-0.6,4.7-1.8c2.2-2.2,2.4-5.7,2.4-9.8C54.3,46.3,54.1,42.7,52,40.6"/>
		</g>
		<g>
			<defs>
				<rect id="SVGID_5_" y="12.4" width="118.9" height="58.4"/>
			</defs>
			<clipPath id="SVGID_6_">
				<use xlink:href="#SVGID_5_"  style="overflow:visible;"/>
			</clipPath>
			<path class="st2" d="M107.1,70.5V67c-2.6,2.8-5.1,3.9-9.6,3.9c-4.3,0-7.7-1.2-9.8-3.5c-2.2-2.2-3.1-5.5-3.1-9.1
				c0-6.3,4.3-11.6,13.2-11.6h9.2v-2c0-4.3-2.2-6.3-7.3-6.3c-3.7,0-5.5,1-7.5,3.3L86,35.5c3.7-4.3,7.5-5.5,14-5.5
				c10.8,0,16.5,4.7,16.5,14.2v26.4H107.1z M106.9,53.6h-7.7c-3.5,0-5.5,1.8-5.5,4.5c0,2.8,1.8,4.5,5.5,4.5c2.8,0,4.3-0.2,6.1-2
				c1-1,1.4-2.6,1.4-5.1v-2H106.9z"/>
		</g>
		<g>
			<defs>
				<rect id="SVGID_7_" y="12.4" width="118.9" height="58.4"/>
			</defs>
			<clipPath id="SVGID_8_">
				<use xlink:href="#SVGID_7_"  style="overflow:visible;"/>
			</clipPath>
			<path class="st3" d="M76.6,57.5V30h-10v28.1c0,6.1,3.5,12.2,11.6,12.2h5.7v-9.1h-3.9C77.5,61.4,76.6,60.1,76.6,57.5"/>
		</g>
		<g>
			<defs>
				<rect id="SVGID_9_" y="12.4" width="118.9" height="58.4"/>
			</defs>
			<clipPath id="SVGID_10_">
				<use xlink:href="#SVGID_9_"  style="overflow:visible;"/>
			</clipPath>
			<path class="st4" d="M13.6,27.4l-1.2-3.3H5.9l-1.2,3.3H3l5.5-14.8h1.4l5.5,14.8H13.6z M9.1,14.8l-2.8,7.9h5.5L9.1,14.8z"/>
		</g>
		<g>
			<defs>
				<rect id="SVGID_11_" y="12.4" width="118.9" height="58.4"/>
			</defs>
			<clipPath id="SVGID_12_">
				<use xlink:href="#SVGID_11_"  style="overflow:visible;"/>
			</clipPath>
			<polygon class="st5" points="29.7,27.4 21.8,15.6 21.8,27.4 20.3,27.4 20.3,12.6 21.8,12.6 29.7,24.4 29.7,12.6 31.3,12.6 
				31.3,27.4 			"/>
		</g>
		<g>
			<defs>
				<rect id="SVGID_13_" y="12.4" width="118.9" height="58.4"/>
			</defs>
			<clipPath id="SVGID_14_">
				<use xlink:href="#SVGID_13_"  style="overflow:visible;"/>
			</clipPath>
			<path class="st6" d="M42.1,27.6c-2.2,0-3.7-0.6-5.1-2l1.2-1.2c1.2,1.2,2.4,1.6,4.1,1.6c2.2,0,3.5-1,3.5-2.8
				c0-0.8-0.2-1.4-0.8-1.8c-0.4-0.4-0.8-0.6-2-0.8l-2-0.2c-1.2-0.2-2.2-0.6-2.8-1.2c-0.8-0.6-1.2-1.6-1.2-2.8c0-2.6,1.8-4.1,4.7-4.1
				c2,0,3.1,0.4,4.3,1.6l-1,1c-1-0.8-2-1.2-3.5-1.2c-2,0-3.1,1.2-3.1,2.8c0,0.8,0.2,1.4,0.6,1.8c0.4,0.4,1.2,0.6,2,0.8l1.6,0.2
				c1.4,0.2,2.2,0.6,2.8,1c0.8,0.6,1.2,1.8,1.2,3C47.2,25.8,45.1,27.6,42.1,27.6"/>
		</g>
		<g>
			<defs>
				<rect id="SVGID_15_" y="12.4" width="118.9" height="58.4"/>
			</defs>
			<clipPath id="SVGID_16_">
				<use xlink:href="#SVGID_15_"  style="overflow:visible;"/>
			</clipPath>
			<polygon class="st7" points="53.1,27.4 53.1,12.6 62.4,12.6 62.4,14 54.7,14 54.7,19.1 61.2,19.1 61.2,20.7 54.7,20.7 54.7,26 
				62.4,26 62.4,27.4 			"/>
		</g>
		<g>
			<defs>
				<rect id="SVGID_17_" y="12.4" width="118.9" height="58.4"/>
			</defs>
			<clipPath id="SVGID_18_">
				<use xlink:href="#SVGID_17_"  style="overflow:visible;"/>
			</clipPath>
			<polygon class="st8" points="68.5,27.4 68.5,12.6 70.1,12.6 70.1,26 77.5,26 77.5,27.4 			"/>
		</g>
		<g>
			<defs>
				<rect id="SVGID_19_" y="12.4" width="118.9" height="58.4"/>
			</defs>
			<clipPath id="SVGID_20_">
				<use xlink:href="#SVGID_19_"  style="overflow:visible;"/>
			</clipPath>
			<polygon class="st9" points="94.3,27.4 94.3,16.2 90.1,25 88.8,25 84.6,16.2 84.6,27.4 83,27.4 83,12.6 84.6,12.6 89.5,23.1 
				94.3,12.6 95.8,12.6 95.8,27.4 			"/>
		</g>
		<g>
			<defs>
				<rect id="SVGID_21_" y="12.4" width="118.9" height="58.4"/>
			</defs>
			<clipPath id="SVGID_22_">
				<use xlink:href="#SVGID_21_"  style="overflow:visible;"/>
			</clipPath>
			<path class="st10" d="M112,26c-1,1-2.6,1.6-4.1,1.6c-1.6,0-3-0.6-4.1-1.6c-1.6-1.4-1.6-3-1.6-6.1s0-4.5,1.6-6.1
				c1-1,2.6-1.6,4.1-1.6c1.6,0,3,0.6,4.1,1.6c1.6,1.4,1.6,3,1.6,6.1C113.5,23.1,113.5,24.6,112,26 M110.6,15c-0.8-0.6-1.8-1-2.8-1
				c-1,0-2,0.4-2.8,1c-1,1-1.2,2-1.2,5.1s0.2,4.1,1.2,5.1c0.8,0.6,1.8,1,2.8,1c1,0,2-0.4,2.8-1c1-1,1.2-2,1.2-5.1
				S111.8,15.8,110.6,15"/>
		</g>
		<g>
			<defs>
				<rect id="SVGID_23_" y="12.4" width="118.9" height="58.4"/>
			</defs>
			<clipPath id="SVGID_24_">
				<use xlink:href="#SVGID_23_"  style="overflow:visible;"/>
			</clipPath>
			<path class="st11" d="M116.5,34.3c-1.2,0-2.2-1-2.2-2.2c0-1.2,1-2.2,2.2-2.2s2.2,1,2.2,2.2C118.7,33.3,117.7,34.3,116.5,34.3
				 M116.5,30.4c-1,0-1.6,0.8-1.6,1.8c0,1,0.8,1.8,1.6,1.8c1,0,1.6-0.8,1.6-1.8C118.3,31.1,117.5,30.4,116.5,30.4 M116.9,33.3
				l-0.4-1h-0.2v1h-0.6v-2.4h1c0.4,0,0.8,0.4,0.8,0.8s-0.2,0.6-0.4,0.6l0.4,1H116.9z M116.7,31.3h-0.4v0.6h0.4
				c0.2,0,0.4-0.2,0.4-0.4C116.9,31.5,116.9,31.3,116.7,31.3"/>
		</g>
	</g>
</g>
</svg>
