<svg version="1.1" id="svg_navbar_container" xmlns="http://www.w3.org/2000/svg" xmlns:xlink="http://www.w3.org/1999/xlink" x="0px" y="0px" viewBox="0 0 542.1 61" enable-background="new 0 0 542.1 61" preserveAspectRatio="xMidYMin meet" xml:space="preserve" class="ready finished" height="50px">
    
<style>
    /* LOGO */    
    #svg_navbar_container #navbarlogo * {
        fill-opacity:1;
        stroke-width:0;
    }
</style>

  <g id="navbarlogo" data-duration="10" fill="red" stroke="transparent">
    <path d="M133.8.1h-21.9v60.3h43.4V44.8h-21.5z" style="stroke-dasharray: 208, 210; stroke-dashoffset: 0;"></path>
    <path d="M290.5.1h-62v16.1h26.1l-26.9 44.2h62V44.8h-27.3z" style="stroke-dasharray: 314, 316; stroke-dashoffset: 0;"></path>
    <path d="M133.8.1h-21.9v60.3h43.4V44.8h-21.5z" style="stroke-dasharray: 208, 210; stroke-dashoffset: 0;"></path>
    <path d="M290.8 0v16.1h26.1L290 60.3h62V44.8h-27.4L352.8 0z" style="stroke-dasharray: 314, 316; stroke-dashoffset: 0;"></path>
    <path d="M356.3 60.4h44V46.8h-22.1V37h20.5V22.9h-20.5v-8.3h22.1V.1h-44z" style="stroke-dasharray: 294, 296; stroke-dashoffset: 0;"></path>
    <path d="M403.5 16.8h17.4v43.6h21.3V16.8h17V.1h-55.7z" style="stroke-dasharray: 232, 234; stroke-dashoffset: 0;"></path>
    <path d="M462.2 16.9h17.4v43.6h21.3V16.9h17V.2h-55.7z" style="stroke-dasharray: 233, 235; stroke-dashoffset: 0;"></path>
    <path d="M521 .2h20.4v60.3H521z" style="stroke-dasharray: 162, 164; stroke-dashoffset: 0;"></path>
    <path d="M181.9.1l-26.2 60.3h22.5l4-10h20.1l4 10h21.4L203.3.1h-21.4zm4.5 38.5l5.7-12.5 5.7 12.5h-11.4z" style="stroke-dasharray: 277, 279; stroke-dashoffset: 0;"></path>
    <path d="M42.5 3.4C36.5.3 29.8.2 23.2.2H.3v60.2h21.3V38.9c7.6 0 15.7-.1 22.5-4 5.4-3.1 8.5-8.5 8.5-14.7 0-7.2-3.7-13.5-10.1-16.8zM28 25.7c-2.1.7-4.3.5-6.4.5v-13c2.1 0 4.3-.3 6.3.3 2.8.8 3.7 3.4 3.7 6.1 0 2.7-1 5.2-3.6 6.1z" style="stroke-dasharray: 249, 251; stroke-dashoffset: 0;"></path>
    <path d="M66 .1L39.8 60.4h22.4l4-10h20.1l4 10h21.4L87.4.1H66zm4.6 38.5l5.7-12.5L82 38.6H70.6z" style="stroke-dasharray: 277, 279; stroke-dashoffset: 0;"></path>
  </g>
</svg>