<?xml version="1.0" standalone="no"?>
<!DOCTYPE svg PUBLIC "-//W3C//DTD SVG 20010904//EN"
 "http://www.w3.org/TR/2001/REC-SVG-20010904/DTD/svg10.dtd">
<svg version="1.0" xmlns="http://www.w3.org/2000/svg"
 width="300.000000pt" height="300.000000pt" viewBox="0 0 300.000000 300.000000"
 preserveAspectRatio="xMidYMid meet">
<metadata>
Created by potrace 1.10, written by Peter Selinger 2001-2011
</metadata>
<g transform="translate(0.000000,300.000000) scale(0.100000,-0.100000)"
fill="#000000" stroke="none">
<path d="M241 1781 c-29 -29 -34 -57 -29 -177 3 -98 5 -107 28 -125 33 -24 81
-24 113 1 14 11 30 20 36 20 6 0 20 -9 31 -20 13 -13 33 -20 59 -20 23 0 48 8
64 20 32 25 44 25 82 0 27 -19 45 -20 215 -19 166 0 188 3 217 21 33 20 70 17
85 -6 5 -7 60 -12 155 -14 81 -1 161 -8 176 -14 l29 -11 -44 -15 c-67 -23
-267 -154 -305 -202 -21 -25 -15 -60 11 -70 23 -8 66 -3 76 9 20 24 115 85
127 83 9 -2 19 1 22 7 4 5 23 12 44 14 20 2 40 7 44 10 3 4 16 7 28 7 11 0 45
9 75 19 37 13 60 16 72 10 26 -14 162 -11 200 5 33 14 78 12 78 -3 0 -13 124
8 175 29 11 5 29 11 40 15 47 17 -10 14 -81 -4 -73 -18 -144 -19 -144 -2 0 10
39 45 65 59 17 10 17 11 3 12 -10 0 -39 -14 -65 -30 -101 -64 -222 -89 -258
-54 -14 15 -12 19 27 49 46 37 115 61 147 50 23 -7 27 -20 11 -30 -6 -3 -40
-17 -77 -30 -37 -13 -69 -29 -71 -35 -9 -26 109 15 190 66 29 19 54 24 113 26
41 2 75 6 75 11 0 4 -6 7 -14 7 -7 0 -16 10 -20 23 -8 32 -7 39 4 32 6 -3 10
3 10 14 0 12 -5 21 -12 21 -6 0 -8 3 -5 7 4 3 3 11 -2 17 -13 16 -1 66 15 66
10 0 14 -15 14 -59 0 -48 4 -63 25 -85 30 -33 81 -35 119 -5 23 18 26 27 26
88 0 71 10 91 46 91 34 0 42 -19 46 -107 l4 -82 -46 -12 -45 -13 39 -4 c22 -2
58 1 80 6 23 6 88 10 146 10 88 0 97 -2 55 -8 -27 -5 -72 -9 -98 -9 -26 -1
-62 -8 -80 -17 -45 -23 -119 -75 -114 -80 9 -9 124 20 142 37 33 29 91 49 145
49 88 0 52 -32 -68 -60 -95 -22 -58 -35 120 -40 130 -4 164 -2 161 8 -4 8 -33
12 -99 12 l-93 0 24 26 c15 16 23 35 21 48 -2 12 6 32 21 47 23 25 24 33 24
147 1 66 -2 130 -6 141 -3 11 -20 24 -38 30 -42 13 -1327 14 -1361 1 -15 -5
-28 -20 -32 -35 -3 -14 -10 -25 -16 -25 -5 0 -6 -6 -3 -12 3 -7 0 -4 -7 7 -7
10 -26 32 -41 48 -25 26 -33 29 -74 24 -57 -6 -81 -31 -118 -120 -16 -37 -33
-71 -39 -75 -38 -24 -64 9 -64 81 1 69 -7 92 -38 105 -43 20 -74 14 -109 -21
-33 -33 -55 -37 -55 -11 0 8 -15 22 -34 30 -40 20 -93 13 -126 -16 -22 -19
-23 -19 -53 2 -23 17 -49 23 -112 26 -74 4 -85 2 -104 -17z m202 -35 c42 -19
49 -81 14 -121 -17 -20 -35 -28 -71 -32 l-47 -6 3 -46 2 -46 -47 -3 -47 -3 0
138 0 138 87 -6 c49 -3 96 -9 106 -13z m245 -114 l51 -127 0 130 1 130 50 0
50 0 0 -102 0 -103 48 3 c46 2 47 1 44 -25 -7 -56 14 -25 64 95 l50 122 51 3
50 3 53 -131 c29 -71 55 -128 58 -126 2 3 28 44 58 93 l54 88 -55 3 -55 3 0
37 0 37 274 0 275 0 -22 -35 c-11 -19 -37 -60 -57 -90 -20 -30 -39 -61 -43
-67 -6 -10 6 -11 52 -6 l61 6 0 -32 c0 -17 0 -33 0 -36 0 -3 -144 -7 -321 -10
l-320 -4 -9 25 c-8 20 -16 24 -55 24 -39 0 -45 -3 -51 -24 l-6 -24 -194 0
-195 0 -9 24 c-8 20 -16 24 -53 24 -37 0 -46 -4 -55 -25 -10 -22 -18 -25 -61
-25 l-49 0 52 123 c29 67 55 129 58 137 4 11 18 14 55 12 l50 -4 51 -126z
m1332 98 c0 -29 -1 -30 -50 -30 -43 0 -50 -3 -50 -20 0 -17 7 -20 45 -20 43 0
45 -1 45 -30 0 -29 -2 -30 -45 -30 -41 0 -45 -2 -45 -24 0 -22 3 -23 50 -18
l50 5 0 -36 0 -36 -100 1 -100 1 0 134 0 133 100 0 100 0 0 -30z m260 -5 c0
-34 -1 -35 -41 -35 l-40 0 2 -97 2 -98 -47 -3 -46 -3 0 100 0 101 -40 0 c-39
0 -40 1 -40 35 l0 35 125 0 125 0 0 -35z m260 0 c0 -34 -1 -35 -40 -35 l-40 0
0 -100 0 -100 -45 0 -45 0 0 100 0 100 -40 0 c-39 0 -40 1 -40 35 l0 35 125 0
125 0 0 -35z m100 -100 l0 -135 -45 0 -45 0 0 135 0 135 45 0 45 0 0 -135z
m-1372 41 c22 -7 27 -22 16 -50 -9 -24 -29 -19 -42 9 -13 28 -16 77 -4 59 4
-6 17 -14 30 -18z m400 -232 c30 -8 28 -26 -6 -51 -62 -46 -176 -86 -333 -118
-15 -2 -49 -25 -77 -50 -35 -32 -58 -45 -78 -45 l-29 1 40 35 c22 19 92 69
155 112 148 100 251 136 328 116z"/>
<path d="M340 1680 c0 -23 4 -30 20 -30 25 0 36 25 20 45 -21 25 -40 18 -40
-15z"/>
<path d="M1470 1664 c-30 -49 -57 -93 -59 -98 -2 -5 22 -6 57 -2 l61 7 3 -34
c3 -33 4 -32 60 59 l56 94 -58 0 c-59 0 -59 0 -62 32 -3 30 -6 27 -58 -58z
m94 -17 c15 -23 -29 -65 -52 -50 -25 15 -25 30 -2 53 23 23 38 23 54 -3z"/>
<path d="M572 1625 c-16 -35 -16 -35 13 -35 28 0 30 5 12 38 l-13 23 -12 -26z"/>
<path d="M1083 1620 c-11 -28 -10 -30 14 -30 21 0 23 3 18 23 -12 36 -20 38
-32 7z"/>
<path d="M1525 1400 c-57 -23 -180 -103 -165 -108 26 -9 279 91 294 117 12 18
-73 12 -129 -9z"/>
<path d="M2234 1424 c4 -11 -1 -29 -9 -40 -39 -51 -7 -79 94 -80 42 -1 144 -5
226 -9 91 -4 166 -3 190 3 32 8 11 10 -110 11 -100 1 -163 7 -189 16 -28 10
-64 12 -123 8 -50 -4 -83 -2 -83 4 0 13 49 58 85 76 l30 16 -48 -6 c-36 -4
-52 -2 -59 8 -7 10 -8 9 -4 -7z"/>
<path d="M2039 1405 c-25 -13 -52 -31 -60 -41 -13 -16 -12 -17 11 -11 14 3 58
14 98 23 55 13 69 20 57 27 -9 5 -19 6 -22 3 -4 -3 -13 0 -22 8 -14 12 -22 11
-62 -9z"/>
<path d="M2507 1405 c-21 -7 -42 -16 -45 -20 -9 -9 46 5 83 21 40 17 10 17
-38 -1z"/>
</g>
</svg>
