<?xml version="1.0" encoding="UTF-8"?> <!-- Generator: Adobe Illustrator 23.0.0, SVG Export Plug-In . SVG Version: 6.00 Build 0) --> <svg xmlns="http://www.w3.org/2000/svg" xmlns:xlink="http://www.w3.org/1999/xlink" id="Livello_1" x="0px" y="0px" viewBox="0 0 249.9 93.4" style="enable-background:new 0 0 249.9 93.4;" xml:space="preserve"> <style type="text/css"> .st0{clip-path:url(#SVGID_2_);fill:#000;} .st1{clip-path:url(#SVGID_2_);fill:#EE7203;} </style> <g> <defs> <rect id="SVGID_1_" x="1.1" y="1.3" width="237.8" height="91.3"></rect> </defs> <clipPath id="SVGID_2_"> <use xlink:href="#SVGID_1_" style="overflow:visible;"></use> </clipPath> <path class="st0" d="M226,70.9c-0.6-0.4-0.9-1.1-0.9-2.1c0-0.5,0.1-0.9,0.4-1.4c0.3-0.4,0.7-0.8,1.4-1.1c0.7-0.3,1.5-0.6,2.6-0.8 c1.1-0.2,2.4-0.3,4-0.3v3.8c-0.4,0.4-0.8,0.8-1.2,1.1c-0.4,0.3-0.8,0.6-1.2,0.8c-0.4,0.2-0.9,0.4-1.3,0.5c-0.5,0.1-1,0.2-1.6,0.2 C227.3,71.5,226.5,71.3,226,70.9 M238.9,60.5c0-1.3-0.2-2.5-0.6-3.6c-0.4-1.1-0.9-2-1.7-2.8c-0.7-0.8-1.6-1.4-2.7-1.8 c-1-0.4-2.2-0.7-3.6-0.7c-3.7,0-6.9,1.2-9.5,3.6l1,1.8c0.2,0.3,0.4,0.5,0.6,0.7c0.3,0.2,0.6,0.3,1,0.3c0.4,0,0.9-0.1,1.2-0.3 c0.4-0.2,0.8-0.4,1.2-0.7c0.4-0.3,1-0.5,1.5-0.7c0.6-0.2,1.3-0.3,2.2-0.3c1.2,0,2.2,0.4,2.8,1.1c0.6,0.7,1,1.9,1,3.4v1.3 c-2.6,0-4.8,0.2-6.5,0.7c-1.8,0.4-3.2,1-4.2,1.7c-1.1,0.7-1.8,1.4-2.3,2.3c-0.5,0.8-0.7,1.7-0.7,2.6c0,1,0.2,1.9,0.5,2.7 c0.3,0.8,0.8,1.4,1.4,1.9c0.6,0.5,1.3,0.9,2.1,1.2c0.8,0.3,1.7,0.4,2.7,0.4c0.8,0,1.6-0.1,2.2-0.2c0.7-0.1,1.3-0.3,1.9-0.6 c0.6-0.3,1.2-0.6,1.7-1c0.6-0.4,1.1-0.8,1.7-1.4l0.5,1.6c0.1,0.5,0.4,0.8,0.7,0.9c0.3,0.2,0.7,0.2,1.2,0.2h2.5V60.5z M202,74.9 V58.4c0.7-0.7,1.5-1.3,2.4-1.8c0.8-0.4,1.7-0.6,2.7-0.6c1.3,0,2.3,0.4,2.9,1.1c0.6,0.8,1,1.8,1,3.2v14.5h5.5V60.4 c0-1.3-0.2-2.4-0.5-3.5c-0.3-1.1-0.8-2-1.5-2.7c-0.6-0.8-1.5-1.4-2.4-1.8c-1-0.4-2.1-0.6-3.3-0.6c-0.8,0-1.5,0.1-2.1,0.2 c-0.7,0.1-1.3,0.4-1.8,0.6c-0.6,0.3-1.1,0.6-1.6,1c-0.5,0.4-1,0.8-1.5,1.3l-0.4-1.8c-0.2-0.7-0.7-1-1.4-1h-3.4v22.8H202z M179.1,70.9c-0.6-0.4-0.9-1.1-0.9-2.1c0-0.5,0.1-0.9,0.4-1.4c0.3-0.4,0.7-0.8,1.4-1.1c0.7-0.3,1.5-0.6,2.6-0.8 c1.1-0.2,2.4-0.3,4-0.3v3.8c-0.4,0.4-0.8,0.8-1.2,1.1c-0.4,0.3-0.8,0.6-1.2,0.8c-0.4,0.2-0.9,0.4-1.3,0.5c-0.5,0.1-1,0.2-1.6,0.2 C180.4,71.5,179.7,71.3,179.1,70.9 M192,60.5c0-1.3-0.2-2.5-0.6-3.6c-0.4-1.1-0.9-2-1.7-2.8c-0.7-0.8-1.6-1.4-2.7-1.8 c-1-0.4-2.2-0.7-3.6-0.7c-3.7,0-6.9,1.2-9.5,3.6l1,1.8c0.2,0.3,0.4,0.5,0.6,0.7c0.3,0.2,0.6,0.3,1,0.3c0.4,0,0.9-0.1,1.2-0.3 c0.4-0.2,0.8-0.4,1.2-0.7c0.4-0.3,1-0.5,1.5-0.7c0.6-0.2,1.3-0.3,2.2-0.3c1.2,0,2.2,0.4,2.8,1.1s1,1.9,1,3.4v1.3 c-2.6,0-4.8,0.2-6.5,0.7c-1.8,0.4-3.2,1-4.2,1.7c-1.1,0.7-1.8,1.4-2.3,2.3c-0.5,0.8-0.7,1.7-0.7,2.6c0,1,0.2,1.9,0.5,2.7 c0.3,0.8,0.8,1.4,1.4,1.9c0.6,0.5,1.3,0.9,2.1,1.2c0.8,0.3,1.7,0.4,2.7,0.4c0.8,0,1.6-0.1,2.2-0.2c0.7-0.1,1.3-0.3,1.9-0.6 c0.6-0.3,1.2-0.6,1.7-1c0.6-0.4,1.1-0.8,1.7-1.4l0.5,1.6c0.1,0.5,0.4,0.8,0.7,0.9c0.3,0.2,0.7,0.2,1.2,0.2h2.5V60.5z M156.2,74.9 h5.4l13-32.1h-4.8c-0.5,0-0.9,0.1-1.3,0.4c-0.3,0.3-0.6,0.6-0.7,0.9l-7.6,19.6c-0.5,1.3-0.9,2.8-1.3,4.5c-0.2-0.8-0.4-1.6-0.7-2.4 c-0.2-0.8-0.5-1.5-0.7-2.1l-7.6-19.6c-0.2-0.4-0.4-0.7-0.7-1c-0.3-0.3-0.8-0.4-1.3-0.4h-4.8L156.2,74.9z M129.9,69.1 c-0.9-1.3-1.4-3.1-1.4-5.6c0-2.4,0.5-4.3,1.4-5.6c0.9-1.3,2.3-1.9,4.3-1.9c1.9,0,3.3,0.6,4.2,1.9c0.9,1.3,1.4,3.2,1.4,5.6 c0,2.5-0.5,4.3-1.4,5.6c-0.9,1.3-2.3,1.9-4.2,1.9C132.2,71,130.8,70.4,129.9,69.1 M129.5,52.6c-1.4,0.5-2.6,1.3-3.6,2.3 c-1,1-1.8,2.2-2.3,3.7c-0.5,1.5-0.8,3.1-0.8,4.9c0,1.8,0.3,3.4,0.8,4.9c0.5,1.5,1.3,2.7,2.3,3.7c1,1,2.2,1.8,3.6,2.4 c1.4,0.5,2.9,0.8,4.7,0.8c1.7,0,3.3-0.3,4.6-0.8c1.4-0.5,2.6-1.3,3.6-2.4c1-1,1.7-2.3,2.3-3.7c0.5-1.5,0.8-3.1,0.8-4.9 c0-1.8-0.3-3.4-0.8-4.9c-0.5-1.5-1.3-2.7-2.3-3.7c-1-1-2.2-1.8-3.6-2.3c-1.4-0.5-2.9-0.8-4.6-0.8C132.4,51.8,130.9,52,129.5,52.6 M93.2,74.9V58.2c0.6-0.7,1.2-1.2,1.9-1.6c0.7-0.4,1.4-0.6,2.2-0.6c1.2,0,2.1,0.3,2.7,1c0.6,0.7,0.9,1.8,0.9,3.3v14.5h5.5V60.4 c0-0.7,0.1-1.3,0.3-1.9s0.5-1,0.9-1.4c0.4-0.4,0.8-0.6,1.3-0.8c0.5-0.2,1-0.3,1.6-0.3c1.2,0,2.2,0.4,2.8,1.1c0.6,0.7,1,1.8,1,3.3 v14.5h5.5V60.4c0-1.4-0.2-2.6-0.5-3.7s-0.9-2-1.5-2.7c-0.7-0.7-1.5-1.3-2.5-1.7c-1-0.4-2.1-0.6-3.4-0.6c-0.7,0-1.5,0.1-2.2,0.2 c-0.7,0.2-1.4,0.4-2,0.8c-0.6,0.3-1.2,0.8-1.8,1.3c-0.5,0.5-1,1.2-1.3,1.9c-0.5-1.3-1.2-2.3-2.1-3.1c-0.9-0.8-2.1-1.2-3.6-1.2 c-0.7,0-1.3,0.1-1.9,0.2c-0.6,0.2-1.1,0.4-1.6,0.6c-0.5,0.3-1,0.6-1.4,1c-0.4,0.4-0.9,0.8-1.3,1.2l-0.4-1.7c-0.2-0.7-0.7-1-1.4-1 h-3.4v22.8H93.2z M75.9,74.9V60.7c0.6-1.2,1.3-2.1,2.1-2.8c0.8-0.6,1.8-0.9,2.9-0.9c0.6,0,1.2,0.1,1.5,0.2c0.4,0.1,0.7,0.2,0.9,0.2 c0.3,0,0.5-0.1,0.6-0.2c0.1-0.1,0.2-0.3,0.3-0.6l0.7-4.1c-0.7-0.5-1.7-0.8-2.8-0.8c-1.4,0-2.6,0.4-3.7,1.2 c-1.1,0.8-2.1,1.9-2.9,3.3l-0.3-2.8c-0.1-0.5-0.2-0.9-0.4-1.1c-0.2-0.2-0.6-0.3-1.2-0.3h-3.2v22.8H75.9z M59.2,56.1 c0.6,0.3,1.1,0.6,1.5,1.1c0.4,0.5,0.7,1,0.9,1.7c0.2,0.6,0.3,1.3,0.3,2H51.5c0.3-1.7,0.8-2.9,1.7-3.8c0.9-0.9,2.2-1.4,3.8-1.4 C57.9,55.7,58.6,55.8,59.2,56.1 M52.3,52.7c-1.4,0.6-2.5,1.4-3.5,2.4c-0.9,1-1.7,2.2-2.2,3.6c-0.5,1.4-0.8,2.8-0.8,4.4 c0,2,0.3,3.8,0.9,5.3c0.6,1.5,1.4,2.8,2.4,3.8c1,1,2.2,1.8,3.6,2.3c1.4,0.5,2.8,0.8,4.4,0.8c0.8,0,1.6-0.1,2.5-0.2 c0.9-0.1,1.7-0.3,2.5-0.6c0.8-0.3,1.6-0.7,2.4-1.2c0.8-0.5,1.4-1.1,2-1.8l-1.6-2c-0.1-0.2-0.3-0.3-0.4-0.4C64.4,69.1,64.2,69,64,69 c-0.3,0-0.7,0.1-1.1,0.3c-0.4,0.2-0.8,0.4-1.3,0.7c-0.5,0.3-1,0.5-1.7,0.7c-0.6,0.2-1.4,0.3-2.3,0.3c-1.8,0-3.3-0.5-4.4-1.6 c-1.1-1.1-1.7-2.8-1.9-5.2h14.1c0.3,0,0.5,0,0.6-0.1c0.2-0.1,0.3-0.2,0.4-0.3c0.1-0.2,0.2-0.4,0.2-0.6c0-0.3,0.1-0.6,0.1-1 c0-1.6-0.2-3.1-0.7-4.4c-0.5-1.3-1.2-2.4-2.1-3.2c-0.9-0.9-1.9-1.6-3.1-2c-1.2-0.5-2.5-0.7-4-0.7C55.2,51.8,53.7,52.1,52.3,52.7 M24,42.8v4.9h9.7v27.2h6V47.7h9.7v-4.9H24z"></path> <path class="st1" d="M37,92.5c-0.6,0-1.2,0-1.7,0l-0.7,0c-0.4,0-0.8,0-1.3-0.1c-0.3,0-0.5-0.1-0.7-0.1c-0.4,0-0.9-0.1-1.3-0.2 c-2.6-0.4-5.1-1-7.6-1.9l-1.8-0.7c-0.4-0.2-0.8-0.4-1.2-0.6l-1.2-0.6c-0.4-0.2-0.8-0.4-1.1-0.6c-0.2-0.1-0.4-0.2-0.5-0.3 c-0.4-0.2-0.8-0.5-1.1-0.7c-2.2-1.4-4.2-3.1-6-4.9C8.9,80,7.4,78,6,75.7c-1.4-2.2-2.5-4.6-3.2-6.9c-0.8-2.4-1.3-4.9-1.5-7.5l0-0.3 c0-0.2,0-0.4,0-0.6l-0.1-1.8c0-0.3,0-0.7,0-1c0-1.2,0.1-2.5,0.2-3.8c0.3-2.6,0.8-5.1,1.6-7.4c0.8-2.5,1.9-4.9,3.2-7 c0.7-1.1,1.5-2.2,2.4-3.2l1.4-1.4l1.7-1.8l1.5-2l0.5-0.7c0.1-0.1,0.1-0.2,0.2-0.4c0.1-0.1,0.1-0.2,0.2-0.3l0.1-0.2 c0.2-0.4,0.4-0.8,0.5-1.1c0.8-1.9,1.3-4,1.5-6.3c0.1-1.2,0.1-2.3,0-3.3L16,16.8c0-0.6-0.1-1.3,0-2.1c0.1-1.2,1.1-2,2.3-2 c0,0,0.1,0,0.2,0c0.6,0,1.1,0.3,1.5,0.7c0.2,0.2,0.4,0.4,0.6,0.6l0.5,0.6c0.4,0.4,0.7,0.8,1,1.2c0.3,0.4,0.7,0.8,1,1.2l0.5,0.6 c0.2,0.2,0.3,0.4,0.5,0.7l0.1,0.2c0.1,0.2,0.2,0.3,0.3,0.5l0.8,1.4c0.1,0.1,0.1,0.2,0.2,0.4l0.3-0.4c0.2-0.3,0.4-0.6,0.6-0.9 l0.2-0.3c0.2-0.3,0.3-0.5,0.4-0.8l0.2-0.4c0.2-0.3,0.3-0.6,0.5-0.9l0.9-2.2c0.1-0.2,0.1-0.4,0.2-0.5l0.4-1.4 c0.1-0.3,0.1-0.5,0.2-0.8c0-0.2,0.1-0.4,0.1-0.5l0.1-0.4c0.1-0.3,0.1-0.6,0.2-0.8l0.2-1.5C29.9,8.6,29.9,8.3,30,8l0.1-1.8 c0-0.2,0-0.5,0-0.8l0-2c0-1.2,0.9-2.1,2.1-2.1c0.5,0,0.9,0.2,1.3,0.4c0.9,0.7,1.7,1.4,2.6,2c0.8,0.7,1.7,1.4,2.5,2.1 c0.8,0.6,1.5,1.3,2.3,1.9L41,8c0.6,0.5,1.2,1.1,1.8,1.6l0.6,0.5c0.7,0.6,1.3,1.2,2,1.8l3.5,3.4c0.5,0.5,1,1,1.5,1.5l2.2,2.3 l2.2,2.4c0.5,0.6,1.1,1.2,1.6,1.8l1.1,1.3c0.5,0.6,1,1.2,1.5,1.9l2,2.5l1.9,2.6c0.6,0.8,1.1,1.6,1.6,2.4l1.2,1.9 c0.1,0.2,0.2,0.3,0.3,0.5l1.9,3.5c0.3,0.6,0.1,1.4-0.5,1.8c-0.6,0.4-1.4,0.2-1.8-0.5l-2.1-3.4c-0.1-0.1-0.2-0.2-0.2-0.3l-2.9-4.1 L58.5,31l-2-2.4c-0.5-0.6-1-1.2-1.5-1.7l-1.1-1.2c-0.5-0.6-1-1.2-1.6-1.7l-2.2-2.3l-2.3-2.2c-0.5-0.5-1-1-1.5-1.4l-3.5-3.2 c-0.7-0.6-1.3-1.2-2-1.8l-0.7-0.6c-0.6-0.5-1.2-1-1.7-1.5L38,10.6c-0.7-0.6-1.4-1.2-2.1-1.7c-0.6-0.5-1.1-0.9-1.7-1.3l0,0.7 c0,0.4,0,0.8-0.1,1.2l-0.2,1.5c0,0.4-0.1,0.8-0.2,1.2l-0.1,0.4c0,0.2-0.1,0.4-0.1,0.5c-0.1,0.4-0.1,0.7-0.2,1.1l-0.4,1.5 c-0.1,0.2-0.2,0.5-0.2,0.8l-1,2.5c-0.2,0.4-0.4,0.8-0.6,1.2l-0.2,0.4c-0.2,0.4-0.4,0.7-0.6,1.1l-0.1,0.2c-0.2,0.4-0.5,0.8-0.7,1.1 l-1,1.3c-0.2,0.2-0.4,0.4-0.6,0.7l-0.1,0.2c-0.1,0.2-0.3,0.3-0.5,0.5l-0.1,0.1c-0.2,0.2-0.3,0.3-0.5,0.5c-0.2,0.2-0.4,0.4-0.7,0.6 c-0.9,0.7-2.4,0.5-3.1-0.3c-0.2-0.3-0.4-0.6-0.5-1c0,0,0-0.1,0-0.1l-0.1-0.6c0,0,0-0.1-0.1-0.2l-0.1-0.3c0-0.1-0.1-0.2-0.1-0.2 c0-0.1-0.1-0.2-0.1-0.3c-0.1-0.2-0.1-0.3-0.2-0.5l-0.1-0.2c-0.1-0.1-0.1-0.2-0.2-0.4l-0.6-1c0,0.2,0,0.5,0,0.7 c-0.2,2.8-0.8,5.4-1.8,7.7c-0.2,0.5-0.5,1.1-0.8,1.6l-0.3,0.5c-0.1,0.2-0.2,0.5-0.4,0.7l-0.7,1c-0.1,0.2-0.2,0.4-0.4,0.6l-2,2.4 L12,39.1c-0.7,0.8-1.4,1.7-2,2.6c-1.1,1.8-2.1,3.8-2.8,6c-0.7,2.1-1.2,4.3-1.4,6.6c-0.1,1.2-0.2,2.3-0.2,3.3c0,0.3,0,0.5,0,0.8 l0,1.8c0,0.1,0,0.3,0,0.5l0,0.3c0.2,2.2,0.6,4.4,1.2,6.5c0.6,2.1,1.6,4.1,2.7,6.1c1.2,2,2.5,3.8,4.1,5.4c1.6,1.7,3.3,3.2,5.2,4.5 c0.3,0.2,0.6,0.4,0.9,0.6c0.2,0.1,0.4,0.2,0.5,0.3c0.3,0.2,0.6,0.4,0.9,0.5l1.1,0.6c0.3,0.2,0.7,0.3,1,0.5l1.6,0.7 c2.2,0.9,4.5,1.5,6.8,1.9c0.4,0.1,0.7,0.1,1.1,0.2c0.2,0,0.5,0.1,0.7,0.1c0.3,0,0.7,0.1,1.1,0.1l0.7,0.1c0.5,0,1.2,0,1.8,0.1l1.8,0 c2.4-0.1,4.7-0.4,7-1c2.4-0.6,4.6-1.4,6.7-2.5c0.6-0.3,1.4-0.1,1.7,0.6c0.3,0.6,0.1,1.4-0.5,1.7c-2.3,1.3-4.7,2.2-7.1,3 c-2.5,0.7-5.1,1.2-7.7,1.4L37,92.5z"></path> </g> </svg> 